<?xml version="1.0" standalone="no"?><!DOCTYPE svg PUBLIC "-//W3C//DTD SVG 1.1//EN" "http://www.w3.org/Graphics/SVG/1.1/DTD/svg11.dtd"><svg class="icon" width="60px" height="60.00px" viewBox="0 0 1024 1024" version="1.1" xmlns="http://www.w3.org/2000/svg"><path d="M800.062 597.744l4.189-0.007c52.237-1.433 130.691-83.602 130.691-170.189 0-86.601-75.42-168.45-168.442-168.45-3.799 0-7.556 0.132-11.285 0.383l-56.941 0.584c-20.094-23.092-33.787-34.962-46.908-49.739-39.478-47.938-99.285-78.509-166.23-78.509-110.556 0-201.631 83.373-213.807 190.673-1.28 17.498-2.825 29.347-4.035 40.785l-65.54-0.022a118.818 118.818 0 0 0-11.717-0.577c-64.776 0-117.276 52.509-117.276 117.291 0 60.566 45.892 110.396 104.808 116.63v1.893h69.714v72.547l-57.246-0.161c-97.838-0.271-177.167-93.05-177.167-190.908 0-97.858 79.316-177.188 177.167-177.188 4.912 0 9.782 0.223 14.583 0.613 20.998-136.049 138.594-240.21 280.515-240.21 97.1 0 182.803 48.766 233.983 123.135a247.186 247.186 0 0 1 47.381-4.584c135.756 0 245.797 110.055 245.797 245.818 0 124.366-92.356 227.143-212.234 243.514v-73.322zM387.297 772.643c29.041 11.772 62.131-2.226 73.917-31.281C473 712.314 477.968 601.02 459.85 593.674c-18.118-7.347-92.049 75.984-103.835 105.032-11.785 29.054 2.228 62.152 31.282 73.937z m194.644 184.793c32.674 13.247 69.896-2.504 83.144-35.177 13.247-32.673 18.84-157.826-1.531-166.092-20.372-8.265-103.529 85.453-116.775 118.126-13.247 32.673 2.49 69.896 35.162 83.143z" fill="#ffc600" /></svg>