<?xml version="1.0" standalone="no"?><!DOCTYPE svg PUBLIC "-//W3C//DTD SVG 1.1//EN" "http://www.w3.org/Graphics/SVG/1.1/DTD/svg11.dtd"><svg class="icon" width="60px" height="60.00px" viewBox="0 0 1024 1024" version="1.1" xmlns="http://www.w3.org/2000/svg"><path d="M999.2 446.4c-14.4-34.4-36-65.6-62.4-92-26.4-26.4-57.6-47.2-92.8-61.6-34.4-14.4-70.4-21.6-108-22.4-4-13.6-8.8-27.2-14.4-40.8-15.2-36-37.6-68.8-65.6-96.8-28-28-60.8-49.6-96.8-64.8-37.6-16-77.6-24-118.4-24s-80.8 8-118.4 24c-36 15.2-68.8 36.8-96.8 64.8s-50.4 60-65.6 96.8c-16 37.6-24 77.6-24 118.4 0 7.2 0 15.2 0.8 22.4-25.6 13.6-48.8 32-68 53.6C26.4 471.2 3.2 531.2 3.2 593.6c0 34.4 7.2 68 20 99.2 12.8 30.4 31.2 57.6 55.2 80.8 23.2 23.2 51.2 41.6 81.6 54.4 32 13.6 64.8 20 99.2 20H288l46.4-87.2h-75.2c-92.8 0-168.8-75.2-168.8-167.2 0-85.6 65.6-156 148.8-166.4-10.4-24.8-16-52-16-80 0-119.2 97.6-216 217.6-216s217.6 96.8 217.6 216c0 8-0.8 16-1.6 23.2 22.4-8.8 47.2-13.6 73.6-13.6 112 0 203.2 90.4 203.2 201.6 0 104.8-80.8 190.4-183.2 200.8-5.6 0.8-12 0.8-18.4 0.8H638.4L592 848.8h140.8c8.8 0 17.6-0.8 27.2-1.6 71.2-7.2 137.6-40 185.6-92.8 48.8-53.6 76-122.4 76-195.2 0-39.2-7.2-76.8-22.4-112.8z" fill="#ffc600" /><path d="M551.2 759.2h-128c-7.2 0-13.6-6.4-13.6-13.6s6.4-13.6 13.6-13.6h128c7.2 0 13.6 6.4 13.6 13.6s-5.6 13.6-13.6 13.6z" fill="#ffc600" /><path d="M487.2 823.2c-7.2 0-13.6-6.4-13.6-13.6v-128c0-7.2 6.4-13.6 13.6-13.6 7.2 0 13.6 6.4 13.6 13.6v128c0 7.2-5.6 13.6-13.6 13.6z" fill="#ffc600" /><path d="M442.4 806.4c-3.2 0-7.2-1.6-9.6-4-5.6-5.6-5.6-14.4 0-19.2l90.4-90.4c5.6-5.6 14.4-5.6 19.2 0 5.6 5.6 5.6 14.4 0 19.2l-90.4 90.4c-3.2 3.2-6.4 4-9.6 4z" fill="#ffc600" /><path d="M532.8 806.4c-3.2 0-7.2-1.6-9.6-4L432 712c-5.6-5.6-5.6-14.4 0-19.2 5.6-5.6 14.4-5.6 19.2 0l90.4 90.4c5.6 5.6 5.6 14.4 0 19.2-1.6 3.2-5.6 4-8.8 4zM466.4 932h-128c-7.2 0-13.6-6.4-13.6-13.6 0-7.2 6.4-13.6 13.6-13.6h128c7.2 0 13.6 6.4 13.6 13.6 0 7.2-6.4 13.6-13.6 13.6z" fill="#ffc600" /><path d="M402.4 996c-7.2 0-13.6-6.4-13.6-13.6v-128c0-7.2 6.4-13.6 13.6-13.6 7.2 0 13.6 6.4 13.6 13.6v128c0 7.2-6.4 13.6-13.6 13.6z" fill="#ffc600" /><path d="M356.8 979.2c-3.2 0-7.2-1.6-9.6-4-5.6-5.6-5.6-14.4 0-19.2l90.4-90.4c5.6-5.6 14.4-5.6 19.2 0s5.6 14.4 0 19.2l-90.4 90.4c-2.4 3.2-5.6 4-9.6 4z" fill="#ffc600" /><path d="M447.2 979.2c-3.2 0-7.2-1.6-9.6-4l-90.4-90.4c-5.6-5.6-5.6-14.4 0-19.2 5.6-5.6 14.4-5.6 19.2 0l90.4 90.4c5.6 5.6 5.6 14.4 0 19.2-2.4 3.2-5.6 4-9.6 4zM605.6 405.6c-12.8 0-24.8-5.6-33.6-15.2-15.2-18.4-13.6-46.4 4.8-61.6 44-36.8 99.2-57.6 156.8-57.6 24 0 44 19.2 44 44 0 24-19.2 44-44 44-36.8 0-72 12.8-100 36.8-8 6.4-17.6 9.6-28 9.6z" fill="#ffc600" /><path d="M636.8 580.8h-128c-7.2 0-13.6-6.4-13.6-13.6s6.4-13.6 13.6-13.6h128c7.2 0 13.6 6.4 13.6 13.6s-5.6 13.6-13.6 13.6z" fill="#ffc600" /><path d="M572.8 644.8c-7.2 0-13.6-6.4-13.6-13.6v-128c0-7.2 6.4-13.6 13.6-13.6s13.6 6.4 13.6 13.6v128c0.8 7.2-5.6 13.6-13.6 13.6z" fill="#ffc600" /><path d="M528 628c-3.2 0-7.2-1.6-9.6-4-5.6-5.6-5.6-14.4 0-19.2l90.4-90.4c5.6-5.6 14.4-5.6 19.2 0s5.6 14.4 0 19.2L537.6 624c-2.4 2.4-6.4 4-9.6 4z" fill="#ffc600" /><path d="M618.4 628c-3.2 0-7.2-1.6-9.6-4L518.4 533.6c-5.6-5.6-5.6-14.4 0-19.2 5.6-5.6 14.4-5.6 19.2 0l90.4 90.4c5.6 5.6 5.6 14.4 0 19.2-2.4 2.4-6.4 4-9.6 4z" fill="#ffc600" /></svg>