<?xml version="1.0" standalone="no"?><!DOCTYPE svg PUBLIC "-//W3C//DTD SVG 1.1//EN" "http://www.w3.org/Graphics/SVG/1.1/DTD/svg11.dtd"><svg class="icon" width="60px" height="60.00px" viewBox="0 0 1024 1024" version="1.1" xmlns="http://www.w3.org/2000/svg"><path d="M711.04 276.608c-5.824 2.88-9.728 5.248-9.92 5.376l-0.128 0.064L280.512 510.08c-77.12 38.272-130.496 107.776-130.496 195.776 0 116.992 95.104 212.16 212.096 212.16 97.408 0 161.92-47.296 201.664-146.88l205.888-444.096C788.288 245.696 734.272 265.152 711.04 276.608zM562.048 635.712l-49.728 106.752-25.472 54.656c-35.584 48.256-73.472 63.488-124.672 63.488-85.312 0-154.752-69.376-154.752-154.752 0-52.352 22.016-100.224 66.24-126.656l21.312-11.584L417.28 501.184l277.888-150.656L562.048 635.712z" fill="#ffc600" /><path d="M360.128 706.688m-81.664 0a1.276 1.276 0 1 0 163.328 0 1.276 1.276 0 1 0-163.328 0Z" fill="#ffc600" /><path d="M122.56 383.36m-58.56 0a0.915 0.915 0 1 0 117.12 0 0.915 0.915 0 1 0-117.12 0Z" fill="#ffc600" /><path d="M753.664 744.256m-58.56 0a0.915 0.915 0 1 0 117.12 0 0.915 0.915 0 1 0-117.12 0Z" fill="#ffc600" /><path d="M214.144 318.848c7.36 0 14.656-2.816 20.288-8.384L376.32 168.512c11.2-11.2 11.2-29.376 0-40.576-11.264-11.2-29.376-11.2-40.64 0L193.792 269.824c-11.2 11.2-11.2 29.376 0 40.576C199.424 316.032 206.72 318.848 214.144 318.848z" fill="#ffc600" /><path d="M461.76 305.344c7.296 0 14.656-2.816 20.288-8.384l141.888-141.888c11.2-11.2 11.2-29.376 0-40.576-11.264-11.2-29.44-11.2-40.64 0L441.408 256.32c-11.2 11.2-11.2 29.376 0 40.576C447.04 302.528 454.4 305.344 461.76 305.344z" fill="#ffc600" /><path d="M951.552 538.432c-11.2-11.264-29.376-11.264-40.576 0l-81.344 81.344c-11.264 11.136-11.264 29.376 0 40.576 5.568 5.568 12.928 8.448 20.224 8.448 7.36 0 14.72-2.88 20.288-8.448l81.344-81.344C962.816 567.808 962.816 549.696 951.552 538.432z" fill="#ffc600" /></svg>