<?xml version="1.0" standalone="no"?><!DOCTYPE svg PUBLIC "-//W3C//DTD SVG 1.1//EN" "http://www.w3.org/Graphics/SVG/1.1/DTD/svg11.dtd"><svg class="icon" width="60px" height="60.00px" viewBox="0 0 1024 1024" version="1.1" xmlns="http://www.w3.org/2000/svg"><path d="M817.12875 434.470355H38.787848c-20.68692 0-38.787848-18.100927-38.787848-38.787848 0-20.687944 18.100927-38.787848 38.787848-38.787848h778.340902c62.061784 0 113.776527-51.717813 113.776527-113.778573s-51.716789-113.776527-113.776527-113.776527h-103.434602c-20.68692 0-38.787848-18.101951-38.787848-38.787848s18.100927-38.787848 38.787848-38.787848h103.434602c106.019571 0 191.352223 85.332651 191.352222 191.352223 0 103.435625-85.332651 191.354269-191.352222 191.354269z m31.029868 537.855836h-93.09063c-20.687944 0-38.787848-18.100927-38.787847-38.787848 0-20.685897 18.100927-38.787848 38.787847-38.787847h93.09063c54.302782 0 98.261593-43.95881 98.261593-98.261593s-43.95881-98.261593-98.261593-98.261592H418.907323c-20.685897 0-38.787848-18.101951-38.787847-38.787848 0-20.687944 18.100927-38.787848 38.787847-38.787848h429.251295c98.261593 0 175.837288 80.160665 175.837289 175.837288s-77.575696 175.837288-175.837289 175.837288z m-475.796098-77.575695H69.81874c-20.685897 0-38.787848-18.099904-38.787848-38.787848 0-20.685897 18.100927-38.787848 38.787848-38.787848h302.54378c20.68692 0 38.787848 18.101951 38.787848 38.787848 0 20.687944-18.101951 38.787848-38.787848 38.787848z" fill="#ffc600" /><path d="M579.229677 248.290118H276.684874c-20.685897 0-38.787848-18.100927-38.787848-38.787847 0-20.687944 18.100927-38.787848 38.787848-38.787848h302.544803c20.687944 0 38.787848 18.099904 38.787848 38.787848 0 20.685897-18.099904 38.787848-38.787848 38.787847z" fill="#ffc600" /></svg>