<?xml version="1.0" standalone="no"?><!DOCTYPE svg PUBLIC "-//W3C//DTD SVG 1.1//EN" "http://www.w3.org/Graphics/SVG/1.1/DTD/svg11.dtd"><svg class="icon" width="60px" height="60.00px" viewBox="0 0 1024 1024" version="1.1" xmlns="http://www.w3.org/2000/svg"><path d="M721.93024 618.69568a21.62176 21.62176 0 0 1-13.63968-38.41024c40.68352-33.03936 64.01536-82.01728 64.01536-134.35904 0-95.38048-77.5936-172.97408-172.96896-172.97408-88.22784 0-162.12992 66.00704-171.89888 153.54368a21.62688 21.62688 0 0 1-42.9824-4.79744c12.22144-109.45024 104.6016-191.98976 214.87616-191.98976 119.22432 0 216.21248 96.9984 216.21248 216.2176 0 65.44384-29.15328 126.63296-80.00512 167.936a21.46816 21.46816 0 0 1-13.60896 4.83328M599.12704 194.90304a21.62176 21.62176 0 0 1-21.61664-21.62688V56.5248a21.62688 21.62688 0 0 1 43.24352 0v116.75136a21.62176 21.62176 0 0 1-21.62688 21.62688M326.69696 467.34336H209.93536a21.62688 21.62688 0 0 1 0-43.25376h116.75648a21.62688 21.62688 0 0 1 0.00512 43.25376M988.32384 467.34336h-116.75648a21.62176 21.62176 0 0 1 0-43.25376h116.75648a21.632 21.632 0 0 1 0 43.25376M790.5792 275.88608a21.54496 21.54496 0 0 1-15.29344-6.31808 21.632 21.632 0 0 1 0-30.57664l83.75808-83.7632a21.64224 21.64224 0 0 1 30.57664 0 21.62688 21.62688 0 0 1 0 30.57152L805.86752 269.568a21.5296 21.5296 0 0 1-15.28832 6.31808M407.68512 275.88608a21.5552 21.5552 0 0 1-15.29344-6.31808L308.6336 185.79968a21.62688 21.62688 0 0 1 0-30.57152 21.64736 21.64736 0 0 1 30.58176 0l83.75296 83.7632a21.61152 21.61152 0 0 1-15.2832 36.89472M874.33216 742.54336a21.52448 21.52448 0 0 1-15.2832-6.33344l-83.75808-83.75296a21.64224 21.64224 0 0 1 0-30.58688 21.64736 21.64736 0 0 1 30.58176 0l83.75808 83.7632a21.632 21.632 0 0 1-15.29856 36.91008" fill="#ffc600" /><path d="M166.62016 943.03232c-83.17952-0.55296-150.74304-68.46464-150.74304-151.38304 0-72.03328 49.70496-132.28032 117.36064-147.59424a103.2448 103.2448 0 0 1-1.64864-18.50368c0-56.7552 46.1824-102.9376 102.9376-102.9376 18.85696 0 36.92544 5.03296 52.69504 14.44864 43.20256-57.12896 109.85984-90.58304 182.61504-90.58304 113.70496 0 209.54624 83.75296 226.55488 194.12992 78.6944 5.29408 141.11232 71.01952 141.11232 151.04 0 82.64704-67.23584 150.54848-149.87776 151.36256l-521.00608 0.02048z m67.91168-377.17504c-32.91648 0-59.6992 26.7776-59.6992 59.69408 0 9.3952 2.12992 18.39104 6.33856 26.74688a21.62176 21.62176 0 0 1-18.47296 31.31904c-58.07104 2.304-103.57248 49.74592-103.57248 108.032 0 59.24352 48.27648 107.74528 107.62752 108.12928l520.65792-0.01024c58.82368-0.57344 106.8544-49.07008 106.8544-108.11904 0-59.62752-48.51712-108.14464-108.14464-108.14464-2.2272 0-4.63872 0.09216-7.59808 0.3072a21.64224 21.64224 0 0 1-23.07584-20.17792c-6.25664-97.52576-87.78752-173.89568-185.6-173.89568-65.60256 0-125.10208 33.52064-159.17056 89.69216a21.63712 21.63712 0 0 1-33.8176 4.0448 59.25376 59.25376 0 0 0-42.32704-17.61792" fill="#ffc600" /></svg>