<?xml version="1.0" standalone="no"?><!DOCTYPE svg PUBLIC "-//W3C//DTD SVG 1.1//EN" "http://www.w3.org/Graphics/SVG/1.1/DTD/svg11.dtd"><svg class="icon" width="60px" height="60.00px" viewBox="0 0 1024 1024" version="1.1" xmlns="http://www.w3.org/2000/svg"><path d="M374.760313 788.504498c8.999978 5.192256 20.562315 2.112104 25.75457-6.886851 5.192256-9.03477 2.077312-20.526499-6.922666-25.75457l-20.700461-11.941983 20.700461-11.941983c8.999978-5.193279 12.114922-16.7198 6.922666-25.718755-5.192256-8.999978-16.754592-12.114922-25.75457-6.890944l-20.700461 11.945053 0-23.887037c0-10.417257-8.443299-18.828834-18.828834-18.828834s-18.831904 8.411577-18.831904 18.828834l0 23.887037-20.696368-11.945053c-9.003048-5.189186-20.562315-2.109034-25.75457 6.890944-5.192256 8.999978-2.077312 20.526499 6.922666 25.750477l20.700461 11.909238-20.700461 11.976776c-8.999978 5.192256-12.114922 16.7198-6.855128 25.718755 5.192256 8.999978 16.683984 12.08013 25.687032 6.886851l20.696368-11.941983 0 23.882943c0 10.42135 8.446369 18.831904 18.831904 18.831904s18.828834-8.411577 18.828834-18.831904l0-23.882943L374.760313 788.504498z" fill="#ffc600" /><path d="M481.510592 895.602701l-20.696368-11.941983 20.696368-11.941983c8.999978-5.192256 12.114922-16.7198 6.855128-25.718755-5.192256-9.03477-16.683984-12.114922-25.683962-6.922666l-20.700461 11.941983 0-23.851221c0-10.417257-8.446369-18.828834-18.828834-18.828834-10.385535-0.035816-18.831904 8.411577-18.831904 18.828834l0 23.882943-20.700461-11.94096c-8.999978-5.225001-20.490683-2.14485-25.7515 6.890944-5.192256 8.999978-2.077312 20.526499 6.922666 25.718755l20.700461 11.941983-20.700461 11.941983c-8.999978 5.225001-12.114922 16.7198-6.922666 25.750477 5.259794 8.999978 16.751522 12.0832 25.7515 6.890944l20.700461-11.941983 0 23.882943c0 10.385535 8.446369 18.828834 18.831904 18.828834 10.381441 0 18.828834-8.443299 18.828834-18.863626L441.981297 916.302139l20.700461 11.941983c8.999978 5.192256 20.562315 2.109034 25.75457-6.890944C493.625514 912.322501 490.51057 900.794957 481.510592 895.602701z" fill="#ffc600" /><path d="M664.277172 845.99998c-5.259794-8.999978-16.754592-12.114922-25.75457-6.890944l-20.700461 11.94096 0-23.882943c0-10.417257-8.443299-18.828834-18.828834-18.828834s-18.831904 8.411577-18.831904 18.828834l0 23.882943-20.696368-11.94096c-8.999978-5.192256-20.494777-2.109034-25.75457 6.890944-5.192256 8.999978-2.077312 20.526499 6.922666 25.718755l20.700461 11.941983-20.700461 11.976776c-8.999978 5.189186-12.114922 16.715707-6.922666 25.715685 5.259794 8.999978 16.754592 12.0832 25.75457 6.890944l20.696368-11.941983 0 23.882943c0 10.385535 8.446369 18.828834 18.831904 18.828834s18.828834-8.443299 18.828834-18.828834L617.822141 916.302139l20.700461 11.941983c8.999978 5.192256 20.494777 2.109034 25.683962-6.890944 5.263887-9.031701 2.14792-20.526499-6.852058-25.750477l-20.700461-11.941983 20.700461-11.941983C666.354484 866.526479 669.470451 854.999958 664.277172 845.99998z" fill="#ffc600" /><path d="M550.604226 788.504498c8.999978 5.192256 20.490683 2.112104 25.683962-6.886851 5.259794-9.03477 2.14485-20.526499-6.855128-25.75457l-20.700461-11.941983 20.700461-11.941983c8.999978-5.193279 12.114922-16.7198 6.922666-25.718755-5.259794-8.999978-16.751522-12.114922-25.7515-6.890944l-20.700461 11.945053 0-23.887037c0-10.417257-8.446369-18.828834-18.831904-18.828834-10.381441 0-18.828834 8.411577-18.828834 18.828834l0 23.887037-20.700461-11.945053c-8.999978-5.189186-20.490683-2.109034-25.75457 6.890944-5.192256 8.999978-2.077312 20.526499 6.922666 25.750477l20.700461 11.909238-20.700461 11.976776c-8.999978 5.192256-12.114922 16.7198-6.922666 25.718755 5.263887 8.999978 16.754592 12.08013 25.75457 6.886851l20.700461-11.941983 0 23.882943c0 10.42135 8.446369 18.831904 18.828834 18.831904 10.385535 0 18.831904-8.411577 18.831904-18.831904l0-23.882943L550.604226 788.504498z" fill="#ffc600" /><path d="M745.272881 755.863077l-20.696368-11.941983 20.696368-11.941983c9.003048-5.193279 12.047384-16.7198 6.855128-25.718755-5.192256-9.03477-16.683984-12.114922-25.683962-6.922666l-20.700461 11.941983 0-23.851221c0-10.417257-8.446369-18.828834-18.828834-18.828834-10.385535 0-18.831904 8.411577-18.831904 18.828834l0 23.887037-20.700461-11.945053c-8.999978-5.189186-20.562315-2.109034-25.750477 6.890944-5.192256 8.999978-2.077312 20.526499 6.922666 25.750477l20.62883 11.909238-20.62883 11.941983c-8.999978 5.228071-12.114922 16.7198-6.922666 25.75457 5.189186 8.999978 16.751522 12.08013 25.750477 6.886851l20.700461-11.941983 0 23.882943c0 10.42135 8.446369 18.831904 18.831904 18.831904 10.381441 0 18.828834-8.446369 18.828834-18.831904l0-23.882943 20.700461 11.941983c8.999978 5.192256 20.490683 2.112104 25.75457-6.886851C757.388826 772.582877 754.275929 761.091148 745.272881 755.863077z" fill="#ffc600" /><path d="M905.886929 235.019665c-43.058678-43.129286-102.94358-69.922513-168.780031-69.88772-10.385535 0-20.632923 0.762363-30.670533 2.077312-23.812335-28.211529-52.887534-51.852972-85.841064-69.263503-40.152489-21.253046-86.12145-33.30043-134.652769-33.30043-69.781296 0-134.163629 24.921599-184.010921 66.219167-42.506093 35.168987-74.764797 82.346473-91.657536 136.379087-42.162262 5.504364-80.166831 24.957415-108.689445 53.550637-34.059724 33.992185-55.245232 81.307817-55.177694 133.231397-0.067538 51.884694 21.11797 99.204419 55.177694 133.196605 33.921577 34.023908 81.276095 55.174624 133.196605 55.174624 42.091654 0 458.296891 0 502.326687 0 65.836451 0 125.721353-26.75741 168.780031-69.88772 43.13031-43.058678 69.922513-102.975303 69.851904-168.744215C975.809441 337.994967 949.016215 278.078343 905.886929 235.019665zM852.580862 519.202029c-29.628808 29.631878-70.266343 47.804772-115.473965 47.836495-44.029796 0-460.236056 0-502.326687 0-31.362288-0.031722-59.398832-12.596899-79.961146-33.088606-20.490683-20.597107-33.091676-48.598858-33.091676-79.925331 0-31.362288 12.600993-59.364039 33.091676-79.961146 20.562315-20.455891 48.53132-33.021068 79.752392-33.091676 0.556679 0.035816 1.801019 0.138146 3.948939 0.208754l3.39226 0.138146c6.712889 0.414439 13.221116 1.280156 19.523659 2.803859 7.266497 1.765203 14.259772 4.221138 20.906146 7.30129 6.646374 3.083222 12.944823 6.78452 18.828834 11.076266 16.826224 12.221346 40.361243 8.518001 52.615335-8.305153 12.253068-16.822131 8.518001-40.397059-8.308223-52.650127-9.758248-7.096628-20.281929-13.291724-31.358195-18.485003-8.375761-3.842515-17.031908-7.128351-25.960255-9.761318 13.359262-33.021068 34.750455-61.95812 61.819974-84.387969 37.036521-30.56411 84.182284-48.875151 135.964648-48.875151 36.069497 0 69.784366 8.861832 99.483782 24.541953 14.606673 7.716752 28.246321 17.134239 40.637536 27.965935-10.594289 5.571902-20.771069 11.909238-30.256094 18.899442-12.458753 9.172917-23.950482 19.523659-34.336016 30.773887-14.054087 15.33322-13.08297 39.184441 2.286066 53.235458 15.298428 14.089903 39.181371 13.08604 53.235458-2.24718l0 0c7.060813-7.719822 14.954597-14.780635 23.468504-21.047362 8.513908-6.29845 17.72264-11.768021 27.555589-16.337083 9.828856-4.569062 20.214391-8.237615 31.220049-10.835789l0.208754-0.067538c12.18246-2.874467 24.783453-4.430916 37.660738-4.430916 45.206598 0.031722 85.845157 18.204617 115.473965 47.836495 29.628808 29.664623 47.836495 70.231551 47.836495 115.438149S882.208647 489.537406 852.580862 519.202029z" fill="#ffc600" /></svg>