<?xml version="1.0" standalone="no"?><!DOCTYPE svg PUBLIC "-//W3C//DTD SVG 1.1//EN" "http://www.w3.org/Graphics/SVG/1.1/DTD/svg11.dtd"><svg class="icon" width="60px" height="60.00px" viewBox="0 0 1024 1024" version="1.1" xmlns="http://www.w3.org/2000/svg"><path d="M782.42304 686.11584H172.19584c-88.56064 0-160.57856-72.02304-160.57856-160.56832 0-88.15104 71.36256-159.9488 159.38048-160.57344 12.37504-154.5728 140.91264-275.28704 297.12896-275.28704 105.74848 0 202.09664 55.23456 255.83616 145.35168a227.15392 227.15392 0 0 1 58.46528-7.71072c126.41792 0 229.35552 102.88128 229.35552 229.41184-0.00512 126.45376-102.9376 229.376-229.36064 229.376zM172.19584 410.83904c-63.24224 0-114.71872 51.46112-114.71872 114.70848 0 63.23712 51.4816 114.70336 114.71872 114.70336h610.23232c101.1456 0 183.48544-82.3296 183.48544-183.51104 0-101.2224-82.33984-183.54176-183.48544-183.54176-20.82304 0-41.56928 3.62496-61.6704 10.87488l-18.95424 6.76864-9.22624-17.8688c-43.50464-84.7872-129.48992-137.41568-224.45056-137.41568-139.15648 0-252.33408 113.18272-252.33408 252.34432v26.6496l-26.30656-2.24256c-6.7072-1.02912-12.18048-1.46944-17.29024-1.46944zM123.38688 940.40064a25.11872 25.11872 0 0 1-17.75104-42.88l57.88672-57.82016a25.1136 25.1136 0 0 1 35.49696 35.52768l-57.8816 57.82016a25.01632 25.01632 0 0 1-17.75104 7.35232zM241.73568 808.64768a25.1136 25.1136 0 0 1-17.75104-42.88l36.5056-36.46464a25.10848 25.10848 0 1 1 35.49696 35.53792l-36.5056 36.46464a25.0368 25.0368 0 0 1-17.74592 7.34208zM278.05184 940.40064a25.11872 25.11872 0 0 1-17.75104-42.88l57.88672-57.82016a25.1136 25.1136 0 0 1 35.49696 35.52768l-57.8816 57.82016a25.01632 25.01632 0 0 1-17.75104 7.35232zM396.40064 808.64768a25.1136 25.1136 0 0 1-17.75104-42.88l36.5056-36.46464a25.10848 25.10848 0 1 1 35.49696 35.53792l-36.5056 36.46464a25.0368 25.0368 0 0 1-17.74592 7.34208zM434.26816 940.40064a25.11872 25.11872 0 0 1-17.75104-42.88l57.88672-57.82016a25.1136 25.1136 0 0 1 35.49696 35.52768l-57.8816 57.82016a25.00608 25.00608 0 0 1-17.75104 7.35232zM552.62208 808.64768a25.1136 25.1136 0 0 1-17.75104-42.88l36.5056-36.46464a25.10848 25.10848 0 1 1 35.49696 35.53792l-36.5056 36.46464a25.04192 25.04192 0 0 1-17.74592 7.34208zM610.87232 940.40064a25.11872 25.11872 0 0 1-17.75104-42.88l57.88672-57.82016a25.1136 25.1136 0 0 1 35.49696 35.52768l-57.8816 57.82016a25.02144 25.02144 0 0 1-17.75104 7.35232zM729.22112 808.64768a25.1136 25.1136 0 0 1-17.75104-42.88l36.5056-36.46464a25.10848 25.10848 0 1 1 35.49696 35.53792l-36.5056 36.46464a25.0368 25.0368 0 0 1-17.74592 7.34208z" fill="#ffc600" /></svg>