<?xml version="1.0" standalone="no"?><!DOCTYPE svg PUBLIC "-//W3C//DTD SVG 1.1//EN" "http://www.w3.org/Graphics/SVG/1.1/DTD/svg11.dtd"><svg class="icon" width="60px" height="60.00px" viewBox="0 0 1024 1024" version="1.1" xmlns="http://www.w3.org/2000/svg"><path d="M839.292 305.932c1.042-8.856 1.992-18.938 1.992-26.45 0-125.66-102.134-227.89-227.672-227.89-79.64 0-153.1 41.91-194.144 108.832-25.342-17.146-55.216-26.364-86.474-26.364-85.376 0-154.852 69.536-154.852 155 0 9.216 0.8 18.35 2.404 27.334-72.902 26.762-122.118 96.114-122.118 175.65 0 101.532 80.39 178.134 186.996 178.134h533.092c103.118 0 187.006-83.982 187.006-187.186 0.002-79.974-52.022-151.41-126.23-177.06z m-60.774 319.998H245.424c-81.412 0-142.798-57.554-142.798-133.884 0-66.544 45.082-123.724 109.632-139.078a22.072 22.072 0 0 0 14.214-10.796 22.206 22.206 0 0 0 1.634-17.802 110.024 110.024 0 0 1-5.758-35.308c0-61.06 49.638-110.752 110.646-110.752 29.328 0 56.958 11.368 77.796 31.996a22.174 22.174 0 0 0 19.55 6.012 22.078 22.078 0 0 0 16.112-12.59c29.708-65.552 95.314-107.862 167.16-107.862 101.156 0 183.464 82.362 183.464 183.62 0 11.012-3.25 33.516-4.116 38.916-0.192 1.16-0.288 2.404-0.288 3.586 0 10.756 7.718 19.824 18.1 21.746 64.106 14.806 110.538 73.228 110.538 139.264 0.004 78.814-64.046 142.932-142.792 142.932zM460.198 905.832c0 29.17 23.632 52.856 52.792 52.856 29.168 0 52.824-23.686 52.824-52.856 0 0-2.026-53.548-52.824-104.378-50.776 50.83-52.792 104.378-52.792 104.378z" fill="#ffc600" /></svg>