<?xml version="1.0" standalone="no"?><!DOCTYPE svg PUBLIC "-//W3C//DTD SVG 1.1//EN" "http://www.w3.org/Graphics/SVG/1.1/DTD/svg11.dtd"><svg class="icon" width="60px" height="60.00px" viewBox="0 0 1024 1024" version="1.1" xmlns="http://www.w3.org/2000/svg"><path d="M740.526787 273.297456c-12.008498 0-23.943318 0.973164-35.718503 2.840698-50.990325-66.580394-129.58638-105.797581-214.43586-105.797581-128.288828 0-236.84729 88.754417-263.885086 211.19812-89.478917 6.649444-160.118767 77.453023-160.118767 164.015517 0 91.913363 77.866439 165.883051 173.59571 165.883051l0 0 33.615609 0 0-65.841567-33.69645 0.081864c-58.624189 0-106.284675-44.577265-106.284675-99.301633 0-53.832046 47.824215-97.67867 106.528222-97.67867 3.815909 0 7.713682 0.169869 11.529591 0.568958 0 0 19.407002 1.13587 28.41926-7.233752 7.063883-6.576789 8.281617-22.734794 8.281617-22.734794 10.961656-103.443977 97.841376-181.472098 202.01497-181.472098 64.956408 0 124.471896 28.90533 162.635077 80.375585 0.812505 1.146103 1.704828 2.354628 2.52552 3.499707 1.697665 2.435469 3.41068 4.870938 5.025457 7.389294 0.974188 1.461281 1.949398 2.840698 2.842745 4.376681 8.370645 12.999059 24.447808 18.682501 39.063691 13.722536 13.397125-4.547573 26.550703-6.170536 38.567387-6.576789 83.387175 0.23536 151.186328 68.277036 151.186328 151.746076 0 63.495126-23.708981 106.699114-72.426543 131.943055-14.20963 7.389294-28.661783 12.098549-41.247426 15.192004l0 68.367087c19.649526-3.328815 44.577265-9.912767 69.576635-22.417569 50.829665-25.563212 111.402229-79.811744 111.402229-193.160301C959.51943 371.544061 861.272825 273.297456 740.526787 273.297456L740.526787 273.297456z" fill="#ffc600" /><path d="M437.373349 750.134609c-8.896624 0-16.247033 7.294127-16.247033 16.190751l0 7.405667c0 8.951883 7.350408 16.302291 16.247033 16.302291l41.11542 0-20.558222 35.588543c-4.420683 7.791453-1.768273 17.683754 5.913687 22.159696l6.354731 3.702322c7.736195 4.475941 17.739013 1.768273 22.214954-5.967922l23.431665-35.643802 17.683754 35.643802c4.420683 7.791453 14.423501 10.444886 22.159696 5.967922l6.354731-3.702322c7.736195-4.475941 10.389628-14.477736 5.968945-22.159696l-20.61348-35.588543 41.170678 0c8.896624 0 16.191774-7.350408 16.191774-16.302291l0-7.405667c0-8.896624-7.29515-16.190751-16.191774-16.190751l-41.003879 0 20.612457-35.534308c4.420683-7.791453 1.714038-17.794271-5.967922-22.326495l-6.40999-3.647063c-7.792477-4.475941-17.740036-1.768273-22.160719 5.912663l-20.557198 35.643802-20.557198-35.643802c-4.476965-7.736195-14.534018-10.388605-22.215978-5.912663l-6.40999 3.647063c-7.736195 4.532223-10.389628 14.589276-5.912663 22.271236l20.557198 35.643802-41.170678 0L437.373349 750.134609 437.373349 750.134609z" fill="#ffc600" /></svg>