<?xml version="1.0" standalone="no"?><!DOCTYPE svg PUBLIC "-//W3C//DTD SVG 1.1//EN" "http://www.w3.org/Graphics/SVG/1.1/DTD/svg11.dtd"><svg class="icon" width="60px" height="60.00px" viewBox="0 0 1024 1024" version="1.1" xmlns="http://www.w3.org/2000/svg"><path d="M987.204 556.51c-16.316-115.029-114.415-204.049-233.472-205.756-37.137-63.010-94.413-109.978-160.768-135.305-18.569-7.1-37.888-12.288-57.685-15.838-18.091-3.209-36.523-5.461-55.296-5.461-151.62 0-280.235 105.199-310.955 252.041-78.234 26.078-134.895 99.874-134.895 186.778 0 108.544 88.337 196.881 196.813 196.881 39.185 0 76.39-11.264 108.612-32.7 43.486 21.436 91.614 32.7 140.356 32.7 50.654 0 100.693-12.288 145.408-35.362 37.547 23.074 80.213 35.362 124.996 35.362 125.065 0 227.942-96.393 238.455-218.795 0.614-6.895 1.092-13.79 1.092-20.821 0-11.469-1.092-22.665-2.662-33.724zM750.319 763.358c-38.639 0-75.23-12.493-105.745-36.045-14.473-11.196-35.362-8.533-46.558 6.007-0.205 0.273-0.341 0.546-0.546 0.819-35.977 19.046-76.459 29.218-117.487 29.218-43.554 0-86.426-11.332-124.041-32.631-9.489-5.393-20.412-5.461-29.628-1.434-5.325 0.887-10.513 2.935-15.019 6.485-23.142 18.091-50.859 27.648-80.35 27.648-71.953 0-130.458-58.505-130.458-130.458 0-71.953 58.505-130.458 130.458-130.458 36.318 0 71.202 15.292 95.846 41.984 12.425 13.449 33.451 14.336 46.899 1.843 13.449-12.425 14.336-33.451 1.843-46.899-34.953-37.956-83.831-60.621-135.168-63.078 32.358-103.561 128-175.718 239.616-175.718 7.1 0 14.063 0.683 21.094 1.229 18.705 1.57 36.932 5.257 54.545 10.854 49.63 15.701 93.798 46.285 125.474 88.474-5.939 1.775-11.742 4.028-17.545 6.212-13.38 5.188-26.214 11.605-38.571 19.115-10.445 6.417-20.617 13.38-30.037 21.436-13.995 11.947-15.633 32.905-3.686 46.831 11.878 13.926 32.905 15.633 46.831 3.686 31.266-26.692 71.134-41.37 112.299-41.37 82.398 0 151.484 57.958 168.823 135.236 2.731 12.22 4.301 24.849 4.301 37.888 0 6.212-0.341 12.356-1.024 18.364-9.216 86.903-82.876 154.761-172.169 154.761z" fill="#ffc600" /></svg>