<?xml version="1.0" standalone="no"?><!DOCTYPE svg PUBLIC "-//W3C//DTD SVG 1.1//EN" "http://www.w3.org/Graphics/SVG/1.1/DTD/svg11.dtd"><svg class="icon" width="60px" height="60.00px" viewBox="0 0 1024 1024" version="1.1" xmlns="http://www.w3.org/2000/svg"><path d="M759.2 168.1c-163.9 6.5-242.3 95.7-271.1 139.5-7.5-1.9-15.3-2.9-23.3-2.9-25.4 0-48.4 9.8-65.7 25.8-52.3-60.1-117.3-227.3-135.2-238.4-14.2-29.4-199.1 34.3-145 174.6 86.4 135.9 200.4 160.5 254 164 9.6 30.1 33.7 53.8 64 63-17.3 72.6-137.5 226.5-137.9 248.5-17.9 27.3 131.8 153.1 224.3 34.6 74.1-147.9 32.5-260.2 8.2-305.8 18.3-17.6 29.8-42.3 29.8-69.7 0-7.6-0.9-15-2.6-22.1 75.8-17 259.5 12.1 278.5 2 32.6 2.6 70.4-189.3-78-213.1z" fill="#ffc600" /></svg>