<?xml version="1.0" standalone="no"?><!DOCTYPE svg PUBLIC "-//W3C//DTD SVG 1.1//EN" "http://www.w3.org/Graphics/SVG/1.1/DTD/svg11.dtd"><svg class="icon" width="60px" height="60.00px" viewBox="0 0 1024 1024" version="1.1" xmlns="http://www.w3.org/2000/svg"><path d="M813.6 643.9H210.4c-18.6 0-33.7-15.1-33.7-33.7s15.1-33.7 33.7-33.7h603.3c18.6 0 33.7 15.1 33.7 33.7-0.1 18.6-15.1 33.7-33.8 33.7z m0 161.7H210.4c-18.6 0-33.7-15.1-33.7-33.7s15.1-33.7 33.7-33.7h603.3c18.6 0 33.7 15.1 33.7 33.7-0.1 18.6-15.1 33.7-33.8 33.7zM761.6 254a35.7 35.7 0 1 0 71.4 0 35.7 35.7 0 1 0-71.4 0zM571.4 254a35.7 35.7 0 1 0 71.4 0 35.7 35.7 0 1 0-71.4 0zM381.2 254a35.7 35.7 0 1 0 71.4 0 35.7 35.7 0 1 0-71.4 0zM191 254a35.7 35.7 0 1 0 71.4 0 35.7 35.7 0 1 0-71.4 0zM761.6 479.9a35.7 35.7 0 1 0 71.4 0 35.7 35.7 0 1 0-71.4 0zM571.4 479.9a35.7 35.7 0 1 0 71.4 0 35.7 35.7 0 1 0-71.4 0zM381.2 479.9a35.7 35.7 0 1 0 71.4 0 35.7 35.7 0 1 0-71.4 0zM191 479.9a35.7 35.7 0 1 0 71.4 0 35.7 35.7 0 1 0-71.4 0zM666.5 367a35.7 35.7 0 1 0 71.4 0 35.7 35.7 0 1 0-71.4 0zM476.3 367a35.7 35.7 0 1 0 71.4 0 35.7 35.7 0 1 0-71.4 0zM286.1 367a35.7 35.7 0 1 0 71.4 0 35.7 35.7 0 1 0-71.4 0z" fill="#ffc600" /></svg>