<?xml version="1.0" standalone="no"?><!DOCTYPE svg PUBLIC "-//W3C//DTD SVG 1.1//EN" "http://www.w3.org/Graphics/SVG/1.1/DTD/svg11.dtd"><svg class="icon" width="60px" height="60.00px" viewBox="0 0 1024 1024" version="1.1" xmlns="http://www.w3.org/2000/svg"><path d="M230.61504 274.88256a31.09888 31.09888 0 0 0 43.97056 0 31.10912 31.10912 0 0 0 0-43.96544L208.64 164.97664a31.06816 31.06816 0 0 0-43.96032 0 31.0784 31.0784 0 0 0 0 43.96544l65.93536 65.94048z m584.84736-13.73696l65.3312-65.32096a30.80192 30.80192 0 0 0-43.55584-43.55584L771.9168 217.6a30.80704 30.80704 0 0 0 0 43.5456 30.77632 30.77632 0 0 0 43.5456 0z m-299.0848-86.41024a31.08352 31.08352 0 0 0 31.08352-31.09376V50.38592a31.0784 31.0784 0 1 0-62.16704 0v93.25568a31.0784 31.0784 0 0 0 31.08352 31.09376zM143.33952 485.59616H50.08384a31.0784 31.0784 0 1 0 0 62.16704h93.25568a31.08352 31.08352 0 1 0 0-62.16704z m373.03808-248.87296c-154.61888 0-279.95648 125.34272-279.95648 279.95648 0 154.61888 125.3376 279.95648 279.95648 279.95648s279.95648-125.3376 279.95648-279.95648c0.00512-154.60864-125.3376-279.95648-279.95648-279.95648z m466.29888 248.87296h-93.25568a31.08352 31.08352 0 0 0 0 62.16704h93.25568a31.0784 31.0784 0 1 0 0-62.16704z m-180.53632 272.88576a31.0784 31.0784 0 0 0-43.96544 0 31.0784 31.0784 0 0 0 0 43.96544l65.93536 65.94048a31.07328 31.07328 0 0 0 43.96544 0 31.09888 31.09888 0 0 0 0-43.96544l-65.93536-65.94048zM249.344 740.1728l-65.32608 65.32608a30.78656 30.78656 0 0 0 0 43.5456 30.78656 30.78656 0 0 0 43.5456 0l65.32608-65.3312a30.78144 30.78144 0 0 0 0-43.54048 30.7968 30.7968 0 0 0-43.5456 0z m267.0336 118.45632a31.0784 31.0784 0 0 0-31.08352 31.08864v93.2608a31.0784 31.0784 0 1 0 62.16704 0v-93.2608a31.0784 31.0784 0 0 0-31.08352-31.08864z" fill="#FDC417" /></svg>