<?xml version="1.0" standalone="no"?><!DOCTYPE svg PUBLIC "-//W3C//DTD SVG 1.1//EN" "http://www.w3.org/Graphics/SVG/1.1/DTD/svg11.dtd"><svg class="icon" width="60px" height="60.00px" viewBox="0 0 1024 1024" version="1.1" xmlns="http://www.w3.org/2000/svg"><path d="M502.375805 627.937522h-314.307475c-63.470567 0-115.107621-51.636031-115.107621-115.118877s51.637054-115.131157 115.107621-115.131157c9.007141 0 18.345834 1.180895 27.773553 3.510963 3.068895 0.760317 6.335289 0.197498 8.984629-1.556448a11.333116 11.333116 0 0 0 4.901636-7.661494c12.871145-81.938174 82.391499-141.401474 165.288511-141.401474 92.39227 0 167.564343 75.160817 167.564343 167.551041 0 4.558829-0.354064 9.039887-0.706081 13.499455a11.338233 11.338233 0 0 0 3.399423 8.996908c2.406816 2.341325 5.718235 3.477194 9.074679 3.13541 3.354398-0.354064 6.733355-0.574075 10.176781-0.574074 39.694047 0 74.862012 25.221428 87.556124 62.763462 1.986237 5.928013 8.43409 9.107425 14.327311 7.087419 5.916756-1.998517 9.074679-8.411577 7.087418-14.32731-15.717983-46.537919-59.210543-77.865415-108.331287-78.129429 0-0.817622 0.022513-1.633197 0.022513-2.450818 0-104.854093-85.304851-190.157921-190.170201-190.157921-90.13895 0-166.348656 61.925375-185.444573 148.884912-7.240915-1.180895-14.43885-1.77646-21.503756-1.776459-75.943646 0-137.714502 61.793368-137.714502 137.738037 0 75.943646 61.770855 137.724735 137.714502 137.724735h314.307476a11.296277 11.296277 0 0 0 11.30344-11.30344c-0.001023-6.246261-5.057179-11.30344-11.304464-11.303441z" fill="#ffc600" /><path d="M420.006819 204.626447c28.235065-19.769252 61.439304-30.217209 96.034217-30.217208 82.899058 0 152.417365 59.46944 165.288511 141.407613a11.257391 11.257391 0 0 0 4.924149 7.661494c2.626827 1.75497 5.849218 2.306532 8.962116 1.556448 9.405207-2.341325 18.742876-3.521197 27.773553-3.521196 63.469544 0 115.108644 51.64831 115.108645 115.130134 0 31.679513-12.583596 61.185524-35.456537 83.097579-4.502547 4.315282-4.65809 11.468193-0.331551 15.98302a11.320836 11.320836 0 0 0 8.169053 3.477194c2.802836 0 5.629207-1.047866 7.81499-3.145643 27.331485-26.203802 42.409902-61.505819 42.409902-99.411127 0-75.94467-61.771879-137.737014-137.715525-137.737014-7.064906 0-14.262842 0.595564-21.503757 1.776459-19.11843-86.949304-95.305623-148.879795-185.444572-148.879795-39.253002 0-76.9383 11.866259-108.993367 34.31248-5.121648 3.576455-6.357801 10.624988-2.781346 15.740496 3.599991 5.110391 10.642384 6.345522 15.741519 2.769066zM691.705871 541.287023c-91.464131 0-135.50723 55.81112-137.339971 58.184168a11.278881 11.278881 0 0 0 2.031263 15.80701c4.945639 3.831258 12.031011 2.925632 15.851013-1.976004 1.567705-2.020006 39.562041-49.408293 119.457695-49.408293 47.928592 0 70.358441 12.80463 94.090959 26.359344 23.599488 13.477966 47.995107 27.41949 95.151103 27.41949 57.311287 0 86.62901-19.813255 87.843674-20.663622 5.099135-3.532453 6.379291-10.509355 2.870374-15.641235-3.488451-5.110391-10.487865-6.445806-15.675004-2.991124-0.2415 0.165776-25.41074 16.690124-75.039044 16.690124-41.151235 0-61.925375-11.877515-83.935667-24.438599-24.086581-13.755282-51.372018-29.341259-105.306395-29.341259zM956.00949 678.096922c-0.264013 0.165776-25.409716 16.667611-75.061557 16.667612-41.151235 0-61.925375-11.876492-83.935667-24.438599-24.086581-13.753235-51.372018-29.340235-105.306395-29.340235-91.464131 0-135.50723 55.810097-137.339971 58.184167a11.278881 11.278881 0 0 0 2.031263 15.807011c4.945639 3.841491 12.031011 2.924609 15.851013-1.976005 1.567705-2.020006 39.562041-49.408293 119.457695-49.408293 47.928592 0 70.358441 12.80463 94.090959 26.360368 23.599488 13.476943 47.995107 27.418466 95.151103 27.418466 57.311287 0 86.60752-19.790742 87.843674-20.630876 5.099135-3.532453 6.379291-10.508331 2.891864-15.640212-3.487428-5.132904-10.529821-6.469342-15.673981-3.003404zM955.986977 777.795599c-0.2415 0.166799-25.41074 16.691147-75.039044 16.691147-41.151235 0-61.925375-11.877515-83.935667-24.438599-24.086581-13.753235-51.372018-29.340235-105.306395-29.340235-91.464131 0-135.50723 55.810097-137.339971 58.184167a11.276834 11.276834 0 0 0 2.031263 15.805988c4.945639 3.840468 12.031011 2.925632 15.851013-1.976005 1.567705-2.020006 39.562041-49.408293 119.457695-49.408293 47.928592 0 70.358441 12.80463 94.090959 26.359345 23.599488 13.477966 47.995107 27.41949 95.151103 27.419489 57.311287 0 86.62901-19.813255 87.843674-20.663622 5.099135-3.532453 6.379291-10.509355 2.870374-15.642258-3.487428-5.110391-10.486842-6.445806-15.675004-2.991124zM116.869754 812.346509c-4.414543-4.414543-11.567453-4.414543-15.983019 0l-12.297071 12.285814-12.29707-12.285814c-4.415566-4.414543-11.568477-4.414543-15.984043 0-4.414543 4.414543-4.414543 11.567453 0 15.98302l12.29707 12.286837-12.29707 12.285814c-4.414543 4.414543-4.414543 11.568477 0 15.98302a11.268648 11.268648 0 0 0 7.992021 3.311419c2.892887 0 5.78475-1.104147 7.993045-3.311419l12.297071-12.285814 12.29707 12.285814a11.266601 11.266601 0 0 0 7.992022 3.311419c2.89084 0 5.783727-1.104147 7.990998-3.311419 4.415566-4.414543 4.415566-11.568477 0-15.98302l-12.297071-12.285814 12.297071-12.286837c4.414543-4.415566 4.414543-11.568477-0.001024-15.98302zM224.936005 700.583053c-4.415566-4.414543-11.568477-4.414543-15.984042 0l-12.297071 12.285814-12.297071-12.285814c-4.414543-4.414543-11.567453-4.414543-15.983019 0-4.415566 4.414543-4.415566 11.567453 0 15.983019l12.296047 12.286838-12.296047 12.285814c-4.415566 4.414543-4.415566 11.567453 0 15.983019a11.262508 11.262508 0 0 0 7.992021 3.311419c2.891863 0 5.783727-1.103124 7.990998-3.311419l12.297071-12.285814 12.297071 12.285814a11.263531 11.263531 0 0 0 7.990998 3.311419c2.891863 0 5.78475-1.103124 7.992021-3.311419 4.415566-4.415566 4.415566-11.568477 0-15.983019l-12.297071-12.285814 12.297071-12.286838c4.41659-4.415566 4.41659-11.568477 0.001023-15.983019zM333.267293 812.346509c-4.415566-4.414543-11.568477-4.414543-15.98302 0l-12.29707 12.285814-12.297071-12.285814c-4.414543-4.414543-11.567453-4.414543-15.984043 0-4.415566 4.414543-4.415566 11.567453 0 15.98302l12.297071 12.286837-12.297071 12.285814c-4.415566 4.414543-4.415566 11.568477 0 15.98302a11.270694 11.270694 0 0 0 7.993045 3.311419 11.266601 11.266601 0 0 0 7.990998-3.311419l12.297071-12.285814 12.29707 12.285814a11.267625 11.267625 0 0 0 7.990998 3.311419c2.891863 0 5.783727-1.104147 7.992022-3.311419 4.415566-4.414543 4.415566-11.568477 0-15.98302l-12.296048-12.285814 12.296048-12.286837c4.415566-4.415566 4.415566-11.568477 0-15.98302zM441.332521 700.583053c-4.414543-4.414543-11.567453-4.414543-15.984043 0l-12.297071 12.285814-12.296047-12.285814c-4.415566-4.414543-11.568477-4.414543-15.984043 0-4.414543 4.414543-4.414543 11.567453 0 15.983019l12.297071 12.286838-12.297071 12.285814c-4.414543 4.414543-4.414543 11.567453 0 15.983019a11.266601 11.266601 0 0 0 7.992021 3.311419c2.892887 0 5.783727-1.103124 7.993045-3.311419l12.296047-12.285814 12.297071 12.285814a11.264555 11.264555 0 0 0 7.993045 3.311419c2.89084 0 5.783727-1.103124 7.990998-3.311419 4.415566-4.415566 4.415566-11.568477 0-15.983019l-12.297071-12.285814 12.297071-12.286838c4.414543-4.415566 4.414543-11.568477-0.001023-15.983019z" fill="#ffc600" /></svg>