<?xml version="1.0" standalone="no"?><!DOCTYPE svg PUBLIC "-//W3C//DTD SVG 1.1//EN" "http://www.w3.org/Graphics/SVG/1.1/DTD/svg11.dtd"><svg class="icon" width="60px" height="60.00px" viewBox="0 0 1024 1024" version="1.1" xmlns="http://www.w3.org/2000/svg"><path d="M262.848 773.056c0 29.056-23.552 52.544-52.608 52.544s-52.608-23.552-52.608-52.544c0-29.056 52.608-107.456 52.608-107.456S262.848 744 262.848 773.056z" fill="#ffc600" /><path d="M464 773.056c0 29.056-23.552 52.544-52.608 52.544s-52.608-23.552-52.608-52.544c0-29.056 52.608-107.456 52.608-107.456S464 744 464 773.056z" fill="#ffc600" /><path d="M665.152 773.056c0 29.056-23.552 52.544-52.608 52.544-29.056 0-52.608-23.552-52.608-52.544 0-29.056 52.608-107.456 52.608-107.456S665.152 744 665.152 773.056z" fill="#ffc600" /><path d="M866.304 773.056c0 29.056-23.552 52.544-52.608 52.544s-52.608-23.552-52.608-52.544c0-29.056 52.608-107.456 52.608-107.456S866.304 744 866.304 773.056z" fill="#ffc600" /><path d="M363.456 919.744c0 29.056-23.552 52.544-52.608 52.544s-52.608-23.552-52.608-52.544c0-29.056 52.608-107.456 52.608-107.456S363.456 890.688 363.456 919.744z" fill="#ffc600" /><path d="M564.608 919.744c0 29.056-23.552 52.544-52.608 52.544s-52.608-23.552-52.608-52.544C459.456 890.688 512 812.288 512 812.288S564.608 890.688 564.608 919.744z" fill="#ffc600" /><path d="M765.76 919.744c0 29.056-23.552 52.544-52.608 52.544s-52.608-23.552-52.608-52.544c0-29.056 52.608-107.456 52.608-107.456S765.76 890.688 765.76 919.744z" fill="#ffc600" /><path d="M921.024 363.584c-1.408-9.856-4.032-19.328-6.784-28.736-5.056-17.344-12.352-33.6-21.568-48.704-35.648-58.688-99.264-98.624-172.672-99.648-8.896-15.104-19.456-28.864-30.848-41.728-11.456-12.928-24.192-24.384-37.76-34.88C630.144 93.44 606.848 79.68 581.632 70.016c-16-6.144-32.576-10.56-49.664-13.632C516.416 53.632 500.608 51.712 484.416 51.712c-130.496 0-241.216 90.56-267.648 216.96C149.44 291.072 100.672 354.56 100.672 429.312c0 93.44 76.032 169.472 169.408 169.472 33.728 0 65.792-9.728 93.504-28.16 37.376 18.432 78.848 28.16 120.832 28.16 43.584 0 86.656-10.56 125.12-30.4 32.32 19.904 69.056 30.4 107.584 30.4 107.648 0 196.16-83.008 205.248-188.352 0.512-5.888 0.896-11.84 0.896-17.856C923.328 382.72 922.368 373.056 921.024 363.584zM865.28 408.384c-7.936 74.752-71.36 133.184-148.16 133.184-33.28 0-64.768-10.752-91.008-31.04C613.632 500.928 595.712 503.232 586.048 515.712 585.856 515.968 585.792 516.224 585.6 516.48c-30.976 16.384-65.792 25.152-101.12 25.152-37.504 0-74.368-9.728-106.752-28.096C369.6 508.864 360.128 508.8 352.192 512.256 347.584 513.024 343.168 514.752 339.264 517.824 319.36 533.376 295.424 541.632 270.144 541.632c-61.888 0-112.256-50.368-112.256-112.256 0-61.888 50.368-112.256 112.256-112.256 31.232 0 61.312 13.184 82.496 36.096C363.328 364.8 381.44 365.504 393.024 354.816c11.584-10.688 12.352-28.8 1.6-40.384-30.144-32.64-72.192-52.16-116.416-54.272 27.84-89.152 110.208-151.296 206.272-151.296 6.08 0 12.16 0.576 18.176 1.088C518.72 111.296 534.4 114.496 549.568 119.232c29.312 9.28 56.064 24.96 78.976 45.312 10.496 9.344 20.48 19.392 29.056 30.848-5.12 1.536-10.112 3.456-15.104 5.376C636.16 203.264 630.336 206.72 624.32 209.792c-4.992 2.56-10.24 4.544-15.04 7.488-9.024 5.504-17.792 11.52-25.92 18.432-12.032 10.24-13.44 28.288-3.2 40.32 10.24 12.032 28.288 13.44 40.32 3.2 4.928-4.224 10.368-7.744 15.808-11.2 14.144-9.152 29.696-15.744 46.016-19.712 11.392-2.752 22.976-4.672 34.816-4.672 55.552 0 103.68 30.784 129.28 75.968 7.104 12.544 12.8 25.984 16 40.384 0.448 2.112 0.384 4.416 0.768 6.592 1.536 8.512 2.944 17.088 2.944 26.048C866.176 397.952 865.856 403.2 865.28 408.384z" fill="#ffc600" /></svg>