<?xml version="1.0" standalone="no"?><!DOCTYPE svg PUBLIC "-//W3C//DTD SVG 1.1//EN" "http://www.w3.org/Graphics/SVG/1.1/DTD/svg11.dtd"><svg class="icon" width="60px" height="60.00px" viewBox="0 0 1024 1024" version="1.1" xmlns="http://www.w3.org/2000/svg"><path d="M173.877 936.03c-1.117 0-2.234-0.067-3.367-0.218-13.039-1.825-22.109-13.716-20.271-26.576l12.327-86.092c1.847-12.859 14.01-21.686 26.938-19.993 13.03 1.824 22.108 13.715 20.262 26.575l-12.317 86.091c-1.677 11.74-11.891 20.213-23.572 20.213zM289.38 1021.082c-1.117 0-2.251-0.067-3.385-0.218-13.029-1.844-22.092-13.732-20.245-26.594l24.635-171.142c1.864-12.878 14-21.787 26.954-19.979 13.029 1.843 22.092 13.73 20.245 26.593l-24.635 171.142c-1.692 11.742-11.905 20.198-23.569 20.198zM421.735 1021.082c-1.117 0-2.251-0.067-3.384-0.218-13.03-1.844-22.092-13.732-20.246-26.594l24.635-171.14c1.856-12.878 13.941-21.787 26.954-19.979 13.039 1.843 22.102 13.73 20.254 26.593l-24.643 171.142c-1.693 11.74-11.898 20.196-23.57 20.196zM561.865 936.03c-1.118 0-2.232-0.067-3.367-0.218-13.03-1.825-22.109-13.716-20.264-26.576l12.316-86.092c1.83-12.859 13.968-21.686 26.938-19.993 13.038 1.824 22.118 13.715 20.271 26.575l-12.326 86.091c-1.676 11.74-11.888 20.213-23.568 20.213zM603.806 745.98H160.838C69.137 745.98 0 680.94 0 594.683c0-65.929 40.447-123.566 100.822-147.313a131.832 131.832 0 0 1-1.349-18.906c0-72.944 60.169-132.325 134.143-132.325 25.132 0 49.26 6.815 70.175 19.509 35.596-53.653 96.813-87.045 163.003-87.045 107.324 0 194.637 86.141 194.637 192.024 0 5.225-0.522 11.789-1.21 18.036 61.638 22.925 104.43 82.322 104.43 148.602 0.001 87.512-72.151 158.715-160.845 158.715zM233.617 343.177c-47.689 0-86.479 38.264-86.479 85.286 0 9.362 1.503 18.504 4.484 27.212a23.142 23.142 0 0 1-1.752 18.906c-3.238 5.794-8.813 9.963-15.342 11.487-51.149 11.957-86.864 56.617-86.864 108.613 0 59.433 48.659 104.26 113.175 104.26h442.968c62.403 0 113.174-50.086 113.174-111.679 0-51.777-37.115-97.594-88.271-108.947-12.242-2.712-20.264-14.352-18.306-26.593 1.349-8.489 3.367-23.778 3.367-31.097 0-79.944-65.933-144.985-146.975-144.985-57.567 0-110.135 33.425-133.918 85.153-3.23 7-9.724 11.99-17.386 13.396-7.645 1.423-15.528-1.005-21.068-6.396-16.305-15.875-37.908-24.616-60.807-24.616z" fill="#ffc600" /><path d="M726.429 550.591c-8.83 0-17.3-4.855-21.423-13.194-5.771-11.688-0.867-25.757 10.953-31.449 59.161-28.485 92.48-93.107 80.98-157.145-14.26-79.542-91.313-132.895-172.091-118.745-33.189 5.794-62.583 21.954-84.957 46.737-8.771 9.663-23.82 10.567-33.655 1.909-9.827-8.641-10.693-23.494-1.94-33.19 29.591-32.772 68.397-54.123 112.264-61.775 106.509-18.538 208.476 51.811 227.313 156.858 15.178 84.6-28.827 169.971-107 207.599a23.987 23.987 0 0 1-10.444 2.395zM651.065 113.064c-13.09 0-23.732-10.424-23.826-23.352l-0.44-66.012C626.722 10.722 637.32 0.13 650.482 0.038h0.154c13.09 0 23.739 10.424 23.835 23.36l0.43 66.004c0.078 12.978-10.521 23.57-23.672 23.662h-0.164zM933.365 423.657c-13.081 0-23.731-10.416-23.826-23.36-0.078-12.978 10.521-23.578 23.688-23.662l66.93-0.436h0.153c13.107 0 23.743 10.433 23.827 23.361 0.087 12.978-10.513 23.578-23.672 23.662l-66.931 0.436-0.169-0.001zM864.452 197.204c-6.057 0-12.104-2.261-16.741-6.783-9.37-9.126-9.466-24.03-0.223-33.257l47.019-46.964c9.277-9.269 24.359-9.335 33.706-0.209 9.38 9.126 9.447 24.013 0.205 33.257l-47.011 46.956c-4.663 4.671-10.813 7-16.955 7zM421.022 197.204c-6.15 0-12.292-2.328-16.956-7l-47.019-46.956a23.29 23.29 0 0 1 0.215-33.257c9.361-9.093 24.437-9.06 33.705 0.209l47.01 46.964c9.25 9.227 9.155 24.13-0.215 33.257-4.639 4.522-10.686 6.783-16.74 6.783zM885.248 662.587c-6.15 0-12.31-2.345-16.965-6.999l-47.02-46.989a23.3 23.3 0 0 1 0.224-33.258c9.336-9.126 24.454-9.026 33.697 0.218l47.018 46.989a23.296 23.296 0 0 1-0.215 33.257c-4.645 4.521-10.692 6.782-16.739 6.782z" fill="#ffc600" /></svg>