<?xml version="1.0" standalone="no"?><!DOCTYPE svg PUBLIC "-//W3C//DTD SVG 1.1//EN" "http://www.w3.org/Graphics/SVG/1.1/DTD/svg11.dtd"><svg class="icon" width="60px" height="60.00px" viewBox="0 0 1024 1024" version="1.1" xmlns="http://www.w3.org/2000/svg"><path d="M237.9 958.7c-3.5 0-6.9-1-10-2.8-9.8-5.8-13.1-19-7.3-29.3l79.2-141.1c3.7-6.6 10.6-10.7 17.9-10.7 3.5 0 7 1 10.1 2.8 9.8 5.8 13.1 19 7.2 29.3L255.8 948c-3.7 6.6-10.6 10.7-17.9 10.7z m162.4-0.1c-3.5 0-6.9-0.9-10-2.7-9.8-5.9-13.1-19-7.3-29.2l79.2-141.2c3.7-6.6 10.6-10.7 17.9-10.7 3.5 0 7 1 10 2.8 9.8 5.8 13 19 7.3 29.3l-79.2 141c-3.7 6.6-10.6 10.7-17.9 10.7z m162.4-0.1c-3.5 0-7-1-10-2.8-9.9-5.8-13.2-18.8-7.3-29.1l79.2-141.1c3.7-6.6 10.6-10.7 17.9-10.7 3.5 0 7 1 10.1 2.8 9.8 5.8 13 18.9 7.2 29.2L580.6 948c-3.8 6.5-10.6 10.5-17.9 10.5z m122.9-249.9c-3.4 0-6.9-1-9.9-2.8-9.7-5.9-13-19-7.3-29.1l23.5-42.7c3.6-6.5 10.3-10.5 17.4-10.5 3.5 0 6.9 1 10 2.8 9.8 5.8 13.1 18.9 7.3 29.1l-23.5 42.8c-3.6 6.4-10.4 10.4-17.5 10.4z m-162.2 0c-3.5 0-6.8-1-9.8-2.8-9.7-5.9-13-19-7.4-29.2L529.7 634c3.7-6.6 10.2-10.5 17.5-10.5 3.5 0 6.9 1 10 2.8 9.7 5.9 12.9 19 7.3 29.2l-23.6 42.7c-3.7 6.4-10.3 10.4-17.5 10.4z" fill="#ffc600" /><path d="M237.9 957.9c-3.4 0-6.7-0.9-9.6-2.6-9.4-5.6-12.6-18.3-7-28.2l79.2-141.1c3.6-6.4 10.2-10.4 17.3-10.4 3.4 0 6.7 0.9 9.7 2.7 9.5 5.6 12.6 18.3 7 28.3l-79.2 141.1c-3.7 6.3-10.4 10.2-17.4 10.2z m162.4 0c-3.4 0-6.7-0.9-9.6-2.6-9.5-5.6-12.6-18.3-7-28.2l79.2-141.2c3.6-6.4 10.2-10.4 17.2-10.4 3.4 0 6.7 0.9 9.6 2.7 9.4 5.6 12.6 18.3 7 28.3l-79.2 141c-3.6 6.4-10.2 10.4-17.2 10.4z m162.4-0.1c-3.4 0-6.7-0.9-9.7-2.7-9.5-5.6-12.7-18.2-7.1-28.1l79.2-141.1c3.6-6.4 10.2-10.4 17.3-10.4 3.4 0 6.7 0.9 9.7 2.7 9.4 5.6 12.5 18.3 7 28.1l-79.2 141.2c-3.6 6.4-10.2 10.3-17.2 10.3z m-39.3-250c-3.3 0-6.6-0.9-9.4-2.6-9.4-5.7-12.6-18.3-7.1-28.2l23.5-42.7c3.5-6.3 9.8-10.1 16.8-10.1 3.3 0 6.7 0.9 9.6 2.7 9.3 5.7 12.5 18.3 7 28.2l-23.6 42.7c-3.5 6.2-9.9 10-16.8 10z m162.2 0c-3.3 0-6.6-0.9-9.5-2.7-9.4-5.7-12.6-18.3-7.1-28.1l23.5-42.7c3.5-6.3 9.9-10.1 16.7-10.1 3.3 0 6.7 0.9 9.6 2.7 9.5 5.6 12.6 18.2 7.1 28.1l-23.5 42.8c-3.5 6.2-9.9 10-16.8 10zM310.2 678c-9.1 0-16.2-9.2-16.2-18s7.1-18 16.2-18h125.5c9.2 0 16.2 9.1 16.2 18-0.1 8.8-7.2 18-16.2 18h-125.5z" fill="#ffc600" /><path d="M310.2 678c-8.5 0-15.5-9.5-15.5-18s6.9-18 15.5-18h125.5c8.6 0 15.4 9.4 15.4 18-0.1 8.5-7 18-15.4 18h-125.5z" fill="#ffc600" /><path d="M404.3 727.7c-5.8 0-11.2-3.1-14.2-8.2L327.5 611c-2.2-3.8-2.8-8.2-1.7-12.3 1.1-4.2 3.8-7.6 7.5-9.8 2.5-1.5 5.4-2.3 8.2-2.3 5.7 0 11.1 3.1 13.9 8.1l62.7 108.7c2.1 3.6 2.7 7.9 1.6 12.1-1.1 4.3-3.8 7.8-7.6 10-2.3 1.4-5 2.2-7.8 2.2z" fill="#ffc600" /><path d="M404.3 727c-5.5 0-10.7-3-13.5-7.8l-62.6-108.5c-2.1-3.6-2.7-7.8-1.6-11.8 1.1-4 3.6-7.3 7.2-9.3 2.4-1.4 5.1-2.2 7.9-2.2 5.5 0 10.5 2.9 13.2 7.7l62.7 108.7c2.1 3.5 2.6 7.5 1.6 11.5-1.1 4.1-3.6 7.4-7.2 9.5-2.4 1.4-5.1 2.2-7.7 2.2z" fill="#ffc600" /><path d="M341.6 727.7c-2.8 0-5.5-0.7-8.1-2.2-3.8-2.2-6.5-5.7-7.6-9.9-1.1-4.2-0.5-8.4 1.7-12.1l62.6-108.7c2.9-5.1 8.2-8.1 14-8.1 2.9 0 5.7 0.8 8.2 2.2 7.7 4.4 10.4 14.3 6 22.2l-62.7 108.5c-3 5-8.3 8.1-14.1 8.1z" fill="#ffc600" /><path d="M341.6 727c-2.7 0-5.3-0.7-7.7-2.1-3.6-2.1-6.2-5.4-7.2-9.5-1-4-0.5-8 1.6-11.5l62.6-108.8c2.8-4.8 7.8-7.7 13.3-7.7 2.7 0 5.4 0.7 7.8 2.1 7.4 4.2 9.9 13.7 5.7 21.1L355 719.2c-2.8 4.8-7.9 7.8-13.4 7.8z" fill="#ffc600" /><path d="M252.6 658.6c-3.2 0-6.5-0.1-9.7-0.2-88.5-2.3-159.2-74.6-159.2-163.2 0-89.6 72.1-162.4 161.7-163.4 10.1-0.1 18.6-7.5 20.2-17.4 18.8-119.4 122-207.7 242.9-207.7 98.9 0 187.8 58.8 226.6 149.7 3.1 7.3 10.2 12.2 18.1 12.5 104.5 4.2 187.1 90 187.1 194.6 0 98.5-73.6 181.8-171.4 193.6-11.3 1.4-19.4 11.7-18 23 1.4 11.3 11.7 19.4 23 18 118.5-14.3 207.7-115.3 207.7-234.6 0-122-92.5-223.2-213.8-235-48.2-100-148.3-163.2-259.4-163.2-135.3 0-251.4 94.1-280.6 226-105.3 10.3-185.5 97.8-185.5 203.8 0 118.4 95.1 204.7 210.2 204.7 11.4 0 20.6-9.2 20.6-20.6 0.2-11.4-9.1-20.6-20.5-20.6z" fill="#ffc600" /></svg>