<?xml version="1.0" standalone="no"?><!DOCTYPE svg PUBLIC "-//W3C//DTD SVG 1.1//EN" "http://www.w3.org/Graphics/SVG/1.1/DTD/svg11.dtd"><svg class="icon" width="60px" height="60.00px" viewBox="0 0 1024 1024" version="1.1" xmlns="http://www.w3.org/2000/svg"><path d="M209.58208 752.78336l-69.82656 69.83168a22.71232 22.71232 0 0 0 0 32.13824c4.43904 4.43904 10.25536 6.66112 16.07168 6.66112s11.63264-2.22208 16.06656-6.66112l69.8368-69.82656a22.7328 22.7328 0 0 0-32.14848-32.14336zM816.39424 752.78336a22.71744 22.71744 0 0 0-32.13824 0l-69.8368 69.83168a22.71744 22.71744 0 0 0 16.0768 38.79936 22.656 22.656 0 0 0 16.06656-6.66112l69.8368-69.82656a22.7328 22.7328 0 0 0-0.00512-32.14336zM565.75488 634.91584l-16.60416 80.83968h92.288l-200.92416 256.86016 37.82656-184.54016-97.1264 0.04096 31.38048-153.20064" fill="#ffc600" /><path d="M779.67872 657.82272H174.86848c-87.76192 0-159.15008-71.38304-159.15008-159.15008 0-87.34208 70.72256-158.48448 157.952-159.14496 12.25216-153.15968 139.65824-272.8448 294.50752-272.8448 104.76544 0 200.29952 54.73792 253.568 144.0768a224.29184 224.29184 0 0 1 57.9328-7.65952c125.32736 0 227.33824 102.016 227.33824 227.3792 0.00512 125.37344-102.01088 227.34336-227.33824 227.34336zM174.86848 384.98304c-62.68416 0-113.6896 51.00544-113.6896 113.69472 0 62.70464 51.00544 113.69472 113.6896 113.69472h604.81024c100.28544 0 181.87776-81.59744 181.87776-181.88288 0-100.3008-81.59744-181.92384-181.87776-181.92384-20.63872 0-41.20064 3.64032-61.12768 10.78784l-18.77504 6.74816-9.14944-17.75616C647.5264 164.352 562.28352 112.14336 468.1728 112.14336c-137.92256 0-250.11712 112.22528-250.11712 250.10688v26.37312l-25.96352-2.176c-5.6832-0.8448-11.3664-1.46432-17.22368-1.46432z" fill="#ffc600" /></svg>