<?xml version="1.0" standalone="no"?><!DOCTYPE svg PUBLIC "-//W3C//DTD SVG 1.1//EN" "http://www.w3.org/Graphics/SVG/1.1/DTD/svg11.dtd"><svg class="icon" width="60px" height="60.00px" viewBox="0 0 1024 1024" version="1.1" xmlns="http://www.w3.org/2000/svg"><path d="M709.8 346.3c-10.7 0-19.3-8.7-19.3-19.3 0-92.4-75.2-167.7-167.7-167.7-92.4 0-167.7 75.2-167.7 167.7 0 10.7-8.7 19.3-19.3 19.3s-19.3-8.7-19.3-19.3c0-113.8 92.6-206.4 206.4-206.4 113.8 0 206.4 92.6 206.4 206.4-0.2 10.6-8.8 19.3-19.5 19.3z" fill="#ffc600" /><path d="M727.1 645.6H316.4c-92.3 0-167.5-75.1-167.5-167.5S224 310.6 316.4 310.6h16.3c10.7 0 19.3 8.7 19.3 19.3s-8.7 19.3-19.3 19.3h-16.3c-71 0-128.8 57.8-128.8 128.8 0 71 57.8 128.8 128.8 128.8H727c71 0 128.8-57.8 128.8-128.8 0-71-57.8-128.8-128.8-128.8h-17.3c-10.7 0-19.3-8.7-19.3-19.3s8.7-19.3 19.3-19.3H727c92.3 0 167.5 75.1 167.5 167.5s-75.1 167.5-167.4 167.5zM458.7 773.8H110.6c-1.4 0-2.5-1.1-2.5-2.5v-33.4c0-1.4 1.1-2.5 2.5-2.5h348.1c1.4 0 2.5 1.1 2.5 2.5v33.4c0 1.4-1.1 2.5-2.5 2.5zM943.4 774.4H595.3c-1.4 0-2.5-1.1-2.5-2.5v-33.4c0-1.4 1.1-2.5 2.5-2.5h348.1c1.4 0 2.5 1.1 2.5 2.5v33.4c0 1.4-1.1 2.5-2.5 2.5zM684.7 884.1H336.6c-1.4 0-2.5-1.1-2.5-2.5v-33.4c0-1.4 1.1-2.5 2.5-2.5h348.1c1.4 0 2.5 1.1 2.5 2.5v33.4c0 1.4-1.1 2.5-2.5 2.5z" fill="#ffc600" /></svg>