<?xml version="1.0" standalone="no"?><!DOCTYPE svg PUBLIC "-//W3C//DTD SVG 1.1//EN" "http://www.w3.org/Graphics/SVG/1.1/DTD/svg11.dtd"><svg class="icon" width="60px" height="60.00px" viewBox="0 0 1024 1024" version="1.1" xmlns="http://www.w3.org/2000/svg"><path d="M320.654222 368.668444L483.555556 462.734222v-189.155555l-117.589334-67.868445a28.444444 28.444444 0 0 1 28.444445-49.265778L483.555556 207.928889V85.333333a28.444444 28.444444 0 0 1 56.888888 0v123.591111L631.352889 156.444444a28.444444 28.444444 0 1 1 28.444444 49.265778L540.444444 274.631111v188.103111l163.783112-94.577778V232.391111a28.444444 28.444444 0 0 1 56.888888 0v102.940445l106.154667-61.297778a28.444444 28.444444 0 0 1 28.444445 49.265778l-107.036445 61.809777 90.908445 52.48a28.444444 28.444444 0 0 1-28.444445 49.265778l-119.352889-68.920889L568.888889 512l168.618667 97.365333L856.860444 540.444444a28.444444 28.444444 0 0 1 28.444445 49.265778l-90.908445 52.48 101.319112 58.510222a28.444444 28.444444 0 0 1-28.444445 49.265778l-100.408889-57.998222v102.968889a28.444444 28.444444 0 1 1-56.888889 0v-135.793778L540.444444 561.294222v194.673778L659.797333 824.888889a28.444444 28.444444 0 0 1-28.444444 49.265778L540.444444 821.674667V938.666667a28.444444 28.444444 0 0 1-56.888888 0v-115.968l-89.144889 51.484444a28.444444 28.444444 0 0 1-28.444445-49.294222L483.555556 756.992v-195.697778l-168.618667 97.336889V796.444444a28.444444 28.444444 0 0 1-56.888889 0v-104.96L156.728889 749.937778a28.444444 28.444444 0 1 1-28.444445-49.265778l100.408889-57.998222-89.116444-51.484445a28.444444 28.444444 0 0 1 28.444444-49.237333l117.589334 67.896889L455.111111 512l-163.783111-94.577778-117.589333 67.896889a28.444444 28.444444 0 1 1-28.444445-49.265778l89.144889-51.484444-106.154667-61.269333a28.444444 28.444444 0 0 1 28.444445-49.265778l107.036444 61.809778V230.855111a28.444444 28.444444 0 0 1 56.888889 0v137.813333z" fill="#ffc600" /></svg>