<?xml version="1.0" standalone="no"?><!DOCTYPE svg PUBLIC "-//W3C//DTD SVG 1.1//EN" "http://www.w3.org/Graphics/SVG/1.1/DTD/svg11.dtd"><svg class="icon" width="60px" height="60.00px" viewBox="0 0 1024 1024" version="1.1" xmlns="http://www.w3.org/2000/svg"><path d="M892.81458 155c8-10.6 13.8-16.6 14-36-8.2-21.2-16.8-29.4-48-28-6.6 6-13.4 12-20 18-3.8 15.4-2.4 23.8 2 38 16.4 12.4 29.2 15.6 52 8z m-656 22c23.8-32.8 13.2-73.6-32-78-71.6 29-39 109.6 32 78z m340 74c6.6 0.6 13.4 1.4 20 2 4-4.6 8-9.4 12-14 10.6-21.8-8.6-35.2-30-34-2.6 1.4-5.4 2.6-8 4-5.4 8.8-8.4 14.2-8 30 4.6 4 9.4 8 14 12z m150-18c-21.4 4-42.6 8-64 12-41.6 13.4-77 37.4-108 62-16 14.6-32 29.4-48 44l-28-28c-28.4-21.8-61.4-43.4-96-58-123.8-52.4-325.6-21.2-370 80-72 164.2 176.2 238.8 326 200 45.8-11.8 87.8-31.6 122-56l36-30 16-16c49.8 35.6 89.2 77.6 156 98 130.2 39.8 300-9.2 338-102 62.4-152.6-145.8-208.4-280-206z m-342 236c-78 46-251.8 40.6-302-26-12-16-18-36.8-12-60 18.4-71.6 76-61.2 142-86 80.4 0 133.8 9.8 182 40 18.6 14 37.4 28 56 42 6 6.6 12 13.4 18 20-28.8 22.4-51.6 50.8-84 70z m558-40c-38 63.4-184.2 88.6-272 52-40.4-16.8-65.8-52.2-102-70-5.4-6-10.6-12-16-18 37.8-29.2 62.2-69.6 110-90 22.4-9.6 50.8-6.4 76-16 100.6-1.6 187.8 15.2 208 94 4.2 16.6 4.2 34.2-4 48z m-740 208c-55.4 30.2-40.2 110 24 94 52.8-13.2 42.8-97.8-24-94z m424 2l-12 6c-15 23.2-5.6 38.8 14 50l24-6c7.6-12.2 9-24 4-40-9.2-6-14-10-30-10z m252 120c-17.8 8.6-33.8 14.2-44 30-30.8 48.6 13.6 114.2 74 100 71.8-16.8 65-134.2-30-130z m-844 2c-47 27.2-44.2 115.2 26 98 56.2-13.8 52.8-102.6-26-98z m354 10c-12.8 6.2-20.2 8.8-30 16-4.2 16-2.6 27.6 2 42 10.4 7.6 28 17.8 44 8 10.8-4.8 16.4-11.8 18-26v-18c-10.8-12.4-15.4-16.4-34-22z" fill="#ffc600" /></svg>