<?xml version="1.0" standalone="no"?><!DOCTYPE svg PUBLIC "-//W3C//DTD SVG 1.1//EN" "http://www.w3.org/Graphics/SVG/1.1/DTD/svg11.dtd"><svg class="icon" width="40px" height="39.84px" viewBox="0 0 1028 1024" version="1.1" xmlns="http://www.w3.org/2000/svg"><path d="M538.128 310.456h-47.728l0.084 177.75h-177.722v47.672l177.722-0.056v177.722h47.644v-177.722l177.778-0.028v-47.644l-177.778 0.056zM513.631 62c-249.441 0-451.631 201.459-451.631 450s202.191 450 451.631 450 451.631-201.459 451.631-450c0-248.541-202.219-450-451.631-450zM513.631 931.653c-232.622 0-421.172-187.903-421.172-419.653s188.55-419.653 421.172-419.653c232.594 0 421.172 187.875 421.172 419.653-0.028 231.75-188.578 419.653-421.172 419.653z" fill="#828282" /></svg>