<?xml version="1.0" standalone="no"?><!DOCTYPE svg PUBLIC "-//W3C//DTD SVG 1.1//EN" "http://www.w3.org/Graphics/SVG/1.1/DTD/svg11.dtd"><svg class="icon" width="40px" height="40.00px" viewBox="0 0 1024 1024" version="1.1" xmlns="http://www.w3.org/2000/svg"><path d="M512 4.608C231.424 4.608 3.584 231.936 3.584 513.024s227.328 508.416 508.416 508.416 508.416-227.328 508.416-508.416S792.576 4.608 512 4.608z m0 980.48c-260.608 0-472.064-210.944-472.064-472.064S250.88 40.96 512 40.96c260.608 0 472.064 210.944 472.064 472.064s-211.456 472.064-472.064 472.064z" fill="#828282" /><path d="M566.272 218.624l-2.56 2.56c-12.288 14.336-11.264 34.816 2.048 48.128 62.464 62.976 101.376 150.016 101.376 246.272 0 94.208-37.376 180.224-98.816 243.2-12.8 13.312-13.824 33.28-2.048 47.616 13.824 16.384 37.888 17.408 52.736 2.048 74.752-76.288 120.832-180.736 120.832-295.936 0-115.712-46.08-220.16-121.856-296.448-14.336-13.824-38.4-12.8-51.712 2.56z" fill="#828282" /><path d="M502.784 342.016c-12.288-16.896-36.352-18.944-51.712-4.096l-1.024 0.512c-12.8 12.288-14.336 31.232-3.584 45.056 28.16 37.376 44.032 84.48 44.032 134.656 0 46.592-14.336 89.6-37.888 125.952-9.728 14.848-7.168 33.792 6.144 45.056 15.872 13.312 39.424 10.24 50.688-7.168 31.232-47.104 50.176-103.936 50.176-164.864 0.512-65.536-20.48-125.952-56.832-175.104z m-203.776 172.544c0 42.496 24.576 77.824 54.784 77.824s54.784-34.304 54.784-77.824c0-42.496-24.576-77.824-54.784-77.824s-54.784 34.816-54.784 77.824z" fill="#828282" /></svg>