<?xml version="1.0" standalone="no"?><!DOCTYPE svg PUBLIC "-//W3C//DTD SVG 1.1//EN" "http://www.w3.org/Graphics/SVG/1.1/DTD/svg11.dtd"><svg class="icon" width="40px" height="40.00px" viewBox="0 0 1024 1024" version="1.1" xmlns="http://www.w3.org/2000/svg"><path d="M512 1024c69.632 0 136.192-13.312 199.168-40.448 62.976-27.136 117.248-63.488 163.328-109.568 46.08-46.08 82.432-100.352 109.568-163.328 27.136-62.976 40.448-129.024 40.448-199.168s-13.312-136.192-40.448-199.168c-27.136-62.976-63.488-117.248-109.568-163.328-46.08-46.08-100.352-82.432-163.328-109.568-62.976-26.112-129.536-39.424-199.168-39.424s-136.192 13.312-199.168 40.448-117.248 63.488-162.816 109.568-82.432 100.352-109.568 163.328S0 442.368 0 512c0 69.632 13.312 136.192 40.448 199.168 27.136 62.976 63.488 117.248 109.568 163.328 46.08 46.08 100.352 82.432 163.328 109.568 62.464 26.624 129.024 39.936 198.656 39.936z m0-988.16c64.512 0 125.952 12.288 184.832 37.376s109.568 58.88 152.064 101.376 76.288 93.184 101.376 152.064 37.376 120.832 37.376 184.832c0 64.512-12.288 125.952-37.376 184.832s-58.88 109.568-101.376 152.064-93.184 76.288-152.064 101.376-120.832 37.376-184.832 37.376-125.952-12.288-184.832-37.376-109.568-58.88-152.064-101.376-76.288-93.184-101.376-152.064-37.888-119.808-37.888-184.32c0-64.512 12.288-125.952 37.376-184.832s58.88-109.568 101.376-152.064 93.184-76.288 152.064-101.376C386.048 48.64 447.488 35.84 512 35.84zM273.92 585.728h36.352c5.632 0 10.24-1.536 13.824-5.12 3.584-3.584 5.12-8.192 5.12-13.824v-72.704c0-5.12-1.536-9.216-5.12-12.8s-8.192-5.12-13.824-5.12h-36.352c-5.12 0-9.216 1.536-12.8 5.12s-5.12 7.68-5.12 12.8v72.704c0 5.632 1.536 10.24 5.12 13.824 3.584 3.072 8.192 5.12 12.8 5.12z m0-165.376h36.352c5.632 0 10.24-1.536 13.824-5.12 3.584-3.584 5.12-7.68 5.12-12.8v-72.704c0-5.632-1.536-10.24-5.12-13.824-3.584-3.584-8.192-5.12-13.824-5.12h-36.352c-5.12 0-9.216 1.536-12.8 5.12s-5.12 8.192-5.12 13.824v72.704c0 5.12 1.536 9.216 5.12 12.8s8.192 5.12 12.8 5.12z m146.432 165.376h37.376c5.12 0 9.216-1.536 12.8-5.12s5.12-8.192 5.12-13.824v-72.704c0-5.12-1.536-9.216-5.12-12.8s-7.68-5.12-12.8-5.12h-37.376c-5.12 0-9.216 1.536-12.8 5.12s-5.12 7.68-5.12 12.8v72.704c0 5.632 1.536 10.24 5.12 13.824 3.584 3.072 7.68 5.12 12.8 5.12z m0-165.376h37.376c5.12 0 9.216-1.536 12.8-5.12s5.12-7.68 5.12-12.8v-72.704c0-5.632-1.536-10.24-5.12-13.824-3.584-3.584-7.68-5.12-12.8-5.12h-37.376c-5.12 0-9.216 1.536-12.8 5.12s-5.12 8.192-5.12 13.824v72.704c0 5.12 1.536 9.216 5.12 12.8 3.584 3.072 7.68 5.12 12.8 5.12z m-128 256v17.92c0 5.632 1.536 10.24 5.12 13.824 3.584 3.584 7.68 5.12 12.8 5.12h402.944c5.12 0 9.216-1.536 12.8-5.12s5.12-8.192 5.12-13.824v-17.92c0-5.12-1.536-9.216-5.12-12.8s-7.68-5.12-12.8-5.12H310.272c-5.12 0-9.216 1.536-12.8 5.12s-5.12 7.68-5.12 12.8z m273.92-90.624h37.376c5.12 0 9.216-1.536 12.8-5.12s5.12-8.192 5.12-13.824v-72.704c0-5.12-1.536-9.216-5.12-12.8s-7.68-5.12-12.8-5.12h-37.376c-5.12 0-9.216 1.536-12.8 5.12s-5.12 7.68-5.12 12.8v72.704c0 5.632 1.536 10.24 5.12 13.824 3.584 3.072 8.192 5.12 12.8 5.12z m0-165.376h37.376c5.12 0 9.216-1.536 12.8-5.12s5.12-7.68 5.12-12.8v-72.704c0-5.632-1.536-10.24-5.12-13.824-3.584-3.584-7.68-5.12-12.8-5.12h-37.376c-5.12 0-9.216 1.536-12.8 5.12s-5.12 8.192-5.12 13.824v72.704c0 5.12 1.536 9.216 5.12 12.8 3.584 3.072 8.192 5.12 12.8 5.12z m147.456 165.376h36.352c5.12 0 9.216-1.536 12.8-5.12s5.12-8.192 5.12-13.824v-72.704c0-5.12-1.536-9.216-5.12-12.8s-7.68-5.12-12.8-5.12h-36.352c-5.632 0-10.24 1.536-13.824 5.12-3.584 3.584-5.12 7.68-5.12 12.8v72.704c0 5.632 1.536 10.24 5.12 13.824 3.584 3.072 8.192 5.12 13.824 5.12z m0-165.376h36.352c5.12 0 9.216-1.536 12.8-5.12s5.12-7.68 5.12-12.8v-72.704c0-5.632-1.536-10.24-5.12-13.824-3.584-3.584-7.68-5.12-12.8-5.12h-36.352c-5.632 0-10.24 1.536-13.824 5.12-3.584 3.584-5.12 8.192-5.12 13.824v72.704c0 5.12 1.536 9.216 5.12 12.8 3.584 3.072 8.192 5.12 13.824 5.12z" fill="#828282" /></svg>