<?xml version="1.0" standalone="no"?><!DOCTYPE svg PUBLIC "-//W3C//DTD SVG 1.1//EN" "http://www.w3.org/Graphics/SVG/1.1/DTD/svg11.dtd"><svg class="icon" width="80px" height="80.00px" viewBox="0 0 1024 1024" version="1.1" xmlns="http://www.w3.org/2000/svg"><path d="M320.721455 785.208889v101.726384h141.233131c11.139879 0 20.174869 9.040162 20.174869 20.176161 0 11.137293-9.03499 20.176162-20.174869 20.176162H139.134707c-11.136 0-20.172283-9.038869-20.172283-20.176162 0-11.136 9.03499-20.176162 20.172283-20.176161h141.23701V785.208889C145.131313 774.857697 38.256485 661.589333 38.256485 523.768242c0-11.137293 9.040162-20.176162 20.176161-20.176161s20.176162 9.038869 20.176162 20.176161c0 122.386101 99.547798 221.933899 221.933899 221.933899 122.371879 0 221.939071-99.547798 221.939071-221.933899 0-11.137293 9.040162-20.176162 20.176161-20.176161 11.137293 0 20.176162 9.038869 20.176162 20.176161 0.002586 137.821091-106.890343 251.089455-242.112646 261.440647z m141.233131-503.557172l-0.986505 242.115232c0 83.426263-76.992646 160.638707-160.424081 160.638708-83.426263 0-160.961939-74.710626-160.961939-158.138182l-0.447354-244.615758c0-83.427556 77.98303-161.409293 161.409293-161.409293 83.432727 0 161.410586 77.981737 161.410586 161.409293z m-40.349738 0c0-61.234424-59.822545-121.055677-121.060848-121.055677-61.233131 0-121.055677 59.822545-121.055677 121.055677l-0.989091 242.839273c0 61.233131 60.811636 119.889455 122.044768 119.889454 61.238303 0 121.50303-59.379071 121.50303-120.612202l-0.442182-242.116525z m0 0" fill="#ffffff" /><path d="M819.185778 927.353535l-154.289132-0.054303v-54.141414H824.357495zM869.003636 693.98497l-204.10699-0.054303v-54.141414h210.947879zM975.33802 432.813253l-310.441374-0.054304v-54.141414h320.846869z" fill="#ffffff" /></svg>