<?xml version="1.0" standalone="no"?><!DOCTYPE svg PUBLIC "-//W3C//DTD SVG 1.1//EN" "http://www.w3.org/Graphics/SVG/1.1/DTD/svg11.dtd"><svg class="icon" width="80px" height="80.00px" viewBox="0 0 1024 1024" version="1.1" xmlns="http://www.w3.org/2000/svg"><path d="M570.015 96h-6.208C406.591 96 288 208.482 288 357.634V786.72L183.04 680.609c-12.416-12.577-32.671-12.673-45.248-0.257-12.576 12.448-12.672 32.672-0.256 45.249l158.496 160.255c6.239 6.335 14.496 9.504 22.751 9.504 8.128 0 16.256-3.103 22.497-9.248 0.033-0.032 0.033-0.063 0.064-0.096 0.032-0.033 0.063-0.033 0.096-0.064l159.36-158.912c12.512-12.48 12.543-32.735 0.063-45.248-12.48-12.576-32.736-12.512-45.248-0.063L351.997 785.025V357.633C351.997 244.96 443.07 160 563.806 160h6.208c116.576 0 197.984 81.28 197.984 197.632V864c0 17.696 14.304 32 32.001 32s32.001-14.303 32.001-32V357.633C832 206.016 721.825 96 570.015 96z" fill="#ffffff" /></svg>